<svg id="Layer_1" data-name="Layer 1" xmlns="http://www.w3.org/2000/svg" viewBox="0 0 360 99"><defs><style>.cls-1{fill:#fff;}</style></defs><title>logo</title><path class="cls-1" d="M.76,78.85V19.58H12.67L44.83,57.79V19.58H58.52V78.85H46.61L14.44,40.46V78.85Z"/><path class="cls-1" d="M141.77,26.87A30.83,30.83,0,0,1,151,49.26a30.65,30.65,0,0,1-9.25,22.22c-5.51,5.33-13,8.7-22.92,8.7-11.11,0-18.66-4.44-23.11-8.7a30.31,30.31,0,0,1-9.24-22A33.09,33.09,0,0,1,95.65,27c4-4,11.38-8.71,23.2-8.71C128.09,18.25,135.82,21.09,141.77,26.87Zm-36,9.06c-2.57,2.49-5.24,6.84-5.24,13.42A17.71,17.71,0,0,0,106,62.68a17.45,17.45,0,0,0,12.71,4.89,18,18,0,0,0,13.15-5.07c2.31-2.22,5.16-6.4,5.16-13.24a18.68,18.68,0,0,0-5.16-13.33,19,19,0,0,0-13.06-5.06A18.19,18.19,0,0,0,105.78,35.93Z"/><path class="cls-1" d="M188.69,19.58V70.32H206.1v8.53H179.62V19.58Z"/><path class="cls-1" d="M265.64,62.15H240.4l-7.11,16.7H226l27.28-62.11,26.57,62.11h-7.28Zm-2.58-6.23L253.11,32.2,243,55.92Z"/><path class="cls-1" d="M306.33,78.85V19L356.09,71V19.58H360V80.36L310.24,28.29V78.85Z"/><rect class="cls-1" y="90" width="6.18" height="9"/><path class="cls-1" d="M28.07,99H15.2V90H28.07ZM13.91,99H7.47V90h6.44Z"/><path class="cls-1" d="M352.53,99H339.65V90h12.88Zm-14.16,0h-6.44V90h6.44Zm-7.73,0H317.77V90h12.87Zm-14.16,0H303.6V90h12.88Zm-14.17,0h-6.43V90h6.43Zm-7.72,0H281.71V90h12.88Zm-14.16,0H267.55V90h12.88Zm-14.17,0h-6.43V90h6.43Zm-7.72,0H245.66V90h12.88Zm-14.16,0H231.5V90h12.88Zm-14.17,0h-6.43V90h6.43Zm-7.72,0H209.61V90h12.88Zm-14.16,0H195.45V90h12.88Zm-14.17,0h-6.44V90h6.44Zm-7.72,0H173.56V90h12.88Zm-14.17,0H159.4V90h12.87Zm-14.16,0h-6.44V90h6.44Zm-7.72,0H137.51V90h12.88Zm-14.17,0H123.35V90h12.87Zm-14.16,0h-6.44V90h6.44Zm-7.72,0H101.46V90h12.88Zm-14.17,0H87.3V90h12.87ZM86,99H79.57V90H86Zm-7.72,0H65.41V90H78.29ZM64.12,99H51.25V90H64.12ZM50,99H43.52V90H50Zm-7.73,0H29.36V90H42.23Z"/><rect class="cls-1" x="353.82" y="90" width="6.18" height="9"/><rect class="cls-1" width="6.18" height="9"/><path class="cls-1" d="M28.07,9H15.2V0H28.07ZM13.91,9H7.47V0h6.44Z"/><path class="cls-1" d="M352.53,9H339.65V0h12.88ZM338.37,9h-6.44V0h6.44Zm-7.73,0H317.77V0h12.87ZM316.48,9H303.6V0h12.88ZM302.32,9h-6.44V0h6.44Zm-7.73,0H281.71V0h12.88ZM280.43,9H267.55V0h12.88ZM266.26,9h-6.43V0h6.43Zm-7.72,0H245.66V0h12.88ZM244.38,9H231.5V0h12.88ZM230.21,9h-6.43V0h6.43Zm-7.72,0H209.61V0h12.88ZM208.33,9H195.45V0h12.88ZM194.16,9h-6.43V0h6.43Zm-7.72,0H173.56V0h12.88ZM172.27,9H159.4V0h12.87ZM158.11,9h-6.44V0h6.44Zm-7.72,0H137.51V0h12.88ZM136.22,9H123.35V0h12.87ZM122.06,9h-6.44V0h6.44Zm-7.72,0H101.46V0h12.88ZM100.17,9H87.3V0h12.87ZM86,9H79.57V0H86ZM78.29,9H65.41V0H78.29ZM64.12,9H51.25V0H64.12ZM50,9H43.52V0H50ZM42.23,9H29.36V0H42.23Z"/><rect class="cls-1" x="353.82" width="6.18" height="9"/></svg>