<svg id="Layer_1" data-name="Layer 1" xmlns="http://www.w3.org/2000/svg" viewBox="0 0 1000 1000"><defs><style>.cls-1{fill:#cc281b;}.cls-2{fill:#fff;}</style></defs><title>logo</title><path class="cls-1" d="M498.33,604.93l-34.87-34.87a3.93,3.93,0,0,1-1.16-2.8V519.71h7.92v45.91l33.71,33.71Z"/><path class="cls-1" d="M31.94,640.32V322.87h82.53L266.88,517V322.87H349V640.32h-82.1L114.47,446.23V640.32Z"/><path class="cls-2" d="M387.75,566q0-31.74,22.72-54t55.35-22.26q32.81,0,55.66,22.41,22.57,22.41,22.57,55.06,0,32.94-22.72,55.2-22.86,22.11-56.11,22.11-32.94,0-55.2-22.56Q387.75,599.71,387.75,566Zm34.6.6q0,22,11.73,34.75,12,12.95,31.74,12.94,19.86,0,31.74-12.79t11.89-34.14q0-21.36-11.89-34.15t-31.74-12.94q-19.4,0-31.43,12.94T422.35,566.61Z"/><path class="cls-2" d="M613.69,386.25V640.32H579.85V386.25Z"/><path class="cls-2" d="M764.57,493.81h34V640.32h-34V625q-20.91,19.56-45,19.55-30.39,0-50.24-22-19.71-22.41-19.7-56,0-32.94,19.7-54.9t49.34-22q25.57,0,45.88,21.06Zm-80.33,72.8q0,21.07,11.29,34.3a36.94,36.94,0,0,0,29.18,13.39q18.79,0,30.38-12.94,11.6-13.38,11.59-34t-11.59-34Q743.51,520.29,725,520.28q-17.46,0-29.18,13.24Q684.24,546.92,684.24,566.61Z"/><path class="cls-2" d="M841.29,493.81h34v13.54q17.76-17.61,40-17.6,25.56,0,39.86,16.09,12.33,13.7,12.34,44.68v89.8h-34V558.49q0-21.66-6-29.93-5.87-8.43-21.36-8.43-16.85,0-23.92,11.13-6.91,11-6.92,38.36v70.7h-34Z"/><rect class="cls-2" x="31.94" y="659.66" width="216.29" height="19.34"/><rect class="cls-2" x="283.56" y="659.66" width="180.24" height="19.34"/><rect class="cls-2" x="499.84" y="659.66" width="144.19" height="19.34"/><rect class="cls-2" x="680.08" y="659.66" width="108.14" height="19.34"/><rect class="cls-2" x="824.27" y="659.66" width="72.1" height="19.34"/><rect class="cls-2" x="932.41" y="659.66" width="36.05" height="19.34"/></svg>