<svg id="Layer_1" data-name="Layer 1" xmlns="http://www.w3.org/2000/svg" viewBox="0 0 1115.76 1113.04"><defs><style>.cls-1{fill:#d3d3d3;}.cls-2{fill:#d8d8d8;}</style></defs><title>ring</title><path class="cls-1" d="M900.22,206.83C708.42,15,397.45,15,205.65,206.83s-191.81,502.77,0,694.57,502.77,191.8,694.57,0S1092,398.63,900.22,206.83ZM292.47,814.58c-143.85-143.85-143.85-377.08,0-520.93s377.08-143.85,520.93,0,143.84,377.08,0,520.93S436.32,958.43,292.47,814.58Z"/><rect class="cls-2" x="627.2" y="73.13" width="122.78" height="690.66" transform="translate(497.58 -364.35) rotate(45)"/><rect class="cls-2" x="187.67" y="750.55" width="122.78" height="214.87" transform="translate(679.64 75.19) rotate(45)"/><rect class="cls-2" x="187.67" y="142.8" width="122.78" height="214.87" transform="translate(602.11 251.07) rotate(135)"/><rect class="cls-2" x="795.42" y="750.55" width="122.78" height="214.87" transform="translate(2069.35 858.82) rotate(135)"/><rect class="cls-2" x="524.1" y="479.24" width="122.78" height="214.87" transform="translate(1414.34 587.51) rotate(135)"/><rect class="cls-2" x="458.98" y="414.12" width="122.78" height="214.87" transform="translate(1257.13 522.39) rotate(135)"/><rect class="cls-2" x="925.65" y="451.49" width="122.78" height="214.87" transform="translate(1545.97 -428.11) rotate(90)"/><rect class="cls-2" x="63.47" y="451.84" width="122.78" height="214.87" transform="translate(684.14 434.41) rotate(90)"/><rect class="cls-2" x="486.73" y="880.79" width="122.78" height="214.87" transform="translate(1096.24 1976.44) rotate(180)"/><rect class="cls-2" x="491.54" y="17.39" width="122.78" height="214.87" transform="translate(1105.87 249.64) rotate(180)"/></svg>